<svg xmlns="http://www.w3.org/2000/svg" xmlns:xlink="http://www.w3.org/1999/xlink" width="100" height="100" viewBox="0 0 100 100"><defs><clipPath id="a"><rect width="80" height="80" rx="20" transform="translate(0.671 -0.03)" fill="#fff"/></clipPath><clipPath id="c"><rect width="100" height="100"/></clipPath></defs><g id="b" clip-path="url(#c)"><g transform="translate(9.329 10.03)" clip-path="url(#a)"><path d="M0,0H80.683V80.683H0Z" transform="translate(-0.058 0.048)" fill="#470137"/><path d="M50.145,36.315,40.23,52.273,50.839,69.55a.553.553,0,0,1,.053.4c-.037.124-.16.2-.374.239H42.949a1.2,1.2,0,0,1-1.119-.533c-.711-1.381-1.423-2.661-2.133-4.029s-1.465-2.763-2.265-4.184-1.59-2.86-2.372-4.318h-.053Q33.94,59.258,32.8,61.384t-2.266,4.238c-.746,1.4-1.51,2.7-2.293,4.083a.755.755,0,0,1-.746.48h-7.3a.218.218,0,0,1-.239-.213.53.53,0,0,1,.079-.373L30.314,52.8,20.292,36.261c-.107-.142-.124-.257-.053-.345a.389.389,0,0,1,.32-.134h7.517a1.114,1.114,0,0,1,.48.081.972.972,0,0,1,.319.294c.64,1.422,1.35,2.437,2.132,3.858s1.572,2.826,2.372,4.212,1.538,2.79,2.212,4.212h.053q1.066-2.187,2.158-4.259t2.235-4.192c.764-1.4,1.5-2.392,2.212-3.778a.811.811,0,0,1,.213-.345.772.772,0,0,1,.426-.081h6.984a.305.305,0,0,1,.266.533ZM64.9,71.32a16.515,16.515,0,0,1-7.117-1.5,11.319,11.319,0,0,1-4.985-4.5,14.41,14.41,0,0,1-1.812-7.543A13.921,13.921,0,0,1,52.8,50.793a13.31,13.31,0,0,1,5.278-5.118,17.036,17.036,0,0,1,8.37-1.919q.267,0,.691.026c.284.018.89.045,1.281.079V34.434a.859.859,0,0,1,.724-.966H74.3a.967.967,0,0,1,.963.963V64.814q0,.907.079,1.973t.134,1.919a.546.546,0,0,1-.077.315.551.551,0,0,1-.242.218,24.466,24.466,0,0,1-5.143,1.6,28.918,28.918,0,0,1-5.114.482Zm3.4-6.611V50.155A7.436,7.436,0,0,0,67.274,50a10.572,10.572,0,0,0-1.094-.053,8.23,8.23,0,0,0-3.732.853,6.86,6.86,0,0,0-3.892,6.664,9.406,9.406,0,0,0,.559,3.412,6.481,6.481,0,0,0,1.5,2.346,5.683,5.683,0,0,0,2.239,1.333,8.769,8.769,0,0,0,2.745.427q.747,0,1.381-.053A7.228,7.228,0,0,0,68.3,64.71Z" transform="translate(-7.429 -12.324)" fill="#ff61f6"/></g></g></svg>