<svg xmlns="http://www.w3.org/2000/svg" xmlns:xlink="http://www.w3.org/1999/xlink" width="100" height="100" viewBox="0 0 100 100"><defs><clipPath id="a"><rect width="80" height="80" rx="20" transform="translate(0.073 -0.582)" fill="#fff"/></clipPath><clipPath id="c"><rect width="100" height="100"/></clipPath></defs><g id="b" clip-path="url(#c)"><g transform="translate(9.927 10.582)" clip-path="url(#a)"><g transform="translate(-0.046 0.043)"><path d="M0,0H79.577V79.577H0Z" fill="#00005b"/><path d="M30.183,69.927V36.391c0-.284.142-.426.284-.426h7.39c.995,0,2.271.284,3.269.284a21.138,21.138,0,0,1,6.679.995,10.9,10.9,0,0,1,4.4,2.7,11.114,11.114,0,0,1,2.416,3.694,14.884,14.884,0,0,1,.711,4.263,11.353,11.353,0,0,1-1.989,6.963,10.465,10.465,0,0,1-5.258,3.974,21.85,21.85,0,0,1-7.39,1.278H39.135c-.284,0-1.563-.284-2.271-.284v10.38a.377.377,0,0,1-.427.426H30.467C30.325,70.353,30.183,70.211,30.183,69.927ZM37,42.217V53.159c.426,0,1.7.284,2.132.284h1.7a10.6,10.6,0,0,0,3.694-.568,5.493,5.493,0,0,0,2.7-1.7,4.852,4.852,0,0,0,.995-3.406,6.471,6.471,0,0,0-.711-2.838,4.722,4.722,0,0,0-2.271-1.847,12.184,12.184,0,0,0-3.837-.711H39.137A8.181,8.181,0,0,1,37,42.217Zm22.879,2.271h5.684a.945.945,0,0,1,.711.568c.142.284.284.426.284.711a2.418,2.418,0,0,1,.142.995V47.9a11.624,11.624,0,0,1,3.552-2.838A7.512,7.512,0,0,1,74.8,43.922c.284,0,.427.142.427.284v6.537c0,.284-.142.426-.568.426a7.588,7.588,0,0,0-3.127.284,8.573,8.573,0,0,0-2.7.853A6.561,6.561,0,0,0,66.7,53.585V70.211a.377.377,0,0,1-.426.426H60.308c-.284,0-.426-.142-.568-.426V49.606a15.44,15.44,0,0,0-.142-2.558c0-.711-.142-1.421-.142-2.132,0-.142,0-.142.142-.284,0-.142.141-.142.283-.142Z" transform="translate(-11.418 -13.605)" fill="#99f"/></g></g></g></svg>