<svg xmlns="http://www.w3.org/2000/svg" xmlns:xlink="http://www.w3.org/1999/xlink" width="100" height="100" viewBox="0 0 100 100"><defs><clipPath id="a"><rect width="80" height="80" rx="20" transform="translate(0.072 0.025)" fill="#fff"/></clipPath><clipPath id="c"><rect width="100" height="100"/></clipPath></defs><g id="b" clip-path="url(#c)"><g transform="translate(9.928 9.975)" clip-path="url(#a)"><path d="M0,0H80.793V80.793H0Z" transform="translate(0.041 0.049)" fill="#001e36"/><path d="M28.578,70.732V36.621c0-.249.107-.373.32-.373q.853,0,2.029-.027t2.536-.053l2.882-.053q1.522-.027,3.015-.027A20.056,20.056,0,0,1,46.193,37.1a11.86,11.86,0,0,1,4.457,2.723,10.445,10.445,0,0,1,2.429,3.763,12.5,12.5,0,0,1,.747,4.3,11.858,11.858,0,0,1-1.976,7.046,11.152,11.152,0,0,1-5.338,4.034,21.239,21.239,0,0,1-7.474,1.254q-1.175,0-1.654-.027t-1.441-.027V70.682a.425.425,0,0,1-.481.481H28.949Q28.578,71.16,28.578,70.732Zm7.368-28.079V53.7q.692.054,1.281.053h1.761a12.592,12.592,0,0,0,3.816-.534,5.763,5.763,0,0,0,2.724-1.762,5.126,5.126,0,0,0,1.037-3.416,5.4,5.4,0,0,0-.775-2.936,4.98,4.98,0,0,0-2.318-1.894,9.891,9.891,0,0,0-3.9-.667q-1.281,0-2.268.027T35.946,42.653Zm38.662,8.915a18.833,18.833,0,0,0-3.846-1.12,16.861,16.861,0,0,0-3.709-.428,6.916,6.916,0,0,0-2,.24,1.8,1.8,0,0,0-1.037.667,1.682,1.682,0,0,0-.266.907,1.418,1.418,0,0,0,.319.854,3.637,3.637,0,0,0,1.122.881,22.317,22.317,0,0,0,2.349,1.094,23.292,23.292,0,0,1,5.1,2.431,7.761,7.761,0,0,1,2.611,2.754,7.329,7.329,0,0,1,.773,3.416,7.666,7.666,0,0,1-1.282,4.4,8.414,8.414,0,0,1-3.709,2.962A14.935,14.935,0,0,1,65.023,71.7a21.706,21.706,0,0,1-4.51-.428,16.535,16.535,0,0,1-3.6-1.067.692.692,0,0,1-.373-.641V63.8a.314.314,0,0,1,.134-.294.258.258,0,0,1,.293.027,15.591,15.591,0,0,0,4.326,1.618,16.944,16.944,0,0,0,3.9.507,5.994,5.994,0,0,0,2.749-.481,1.508,1.508,0,0,0,.881-1.383,1.766,1.766,0,0,0-.8-1.335,13.265,13.265,0,0,0-3.256-1.548,19.633,19.633,0,0,1-4.726-2.4,8.137,8.137,0,0,1-2.508-2.8,7.353,7.353,0,0,1-.775-3.39,7.651,7.651,0,0,1,1.122-4,8.146,8.146,0,0,1,3.468-3.043,11.006,11.006,0,0,1,5.4-1.349,33.763,33.763,0,0,1,4.5.066,15.354,15.354,0,0,1,3.525,1.176.483.483,0,0,1,.32.294,1.477,1.477,0,0,1,.054.4v5.392a.358.358,0,0,1-.16.32.346.346,0,0,1-.373,0Z" transform="translate(-10.499 -13.258)" fill="#31a8ff"/></g></g></svg>