<svg xmlns="http://www.w3.org/2000/svg" xmlns:xlink="http://www.w3.org/1999/xlink" width="100" height="100" viewBox="0 0 100 100"><defs><clipPath id="a"><rect width="80" height="80" rx="20" transform="translate(0.056 -0.318)" fill="#fff"/></clipPath><clipPath id="c"><rect width="100" height="100"/></clipPath></defs><g id="b" clip-path="url(#c)"><g transform="translate(9.944 10.318)" clip-path="url(#a)"><path d="M0,0H80.106V80.106H0Z" transform="translate(-0.008 0.045)" fill="#001e36"/><path d="M54.173,71.27H33.319q-.529,0-.529-.582l.025-33.213A.421.421,0,0,1,33.292,37H39.43a.328.328,0,0,1,.37.37l.087,26.863h15.33q.477,0,.37.477L54.7,70.794a.5.5,0,0,1-.211.4.71.71,0,0,1-.318.08Zm5.865-26.3h5.769a.72.72,0,0,1,.686.529,2.579,2.579,0,0,1,.265.741,8.664,8.664,0,0,1,.159,1.029q.053.555.053,1.191a12.365,12.365,0,0,1,3.52-2.832,8.94,8.94,0,0,1,4.638-1.191.422.422,0,0,1,.358.114.429.429,0,0,1,.1.165.419.419,0,0,1,.017.193v6.4c0,.247-.177.37-.529.37a11.154,11.154,0,0,0-3.209.238,13.037,13.037,0,0,0-2.752.873,7.886,7.886,0,0,0-2.141,1.232V70.787q0,.477-.424.477H60.513a.467.467,0,0,1-.529-.529V52.543q0-1.163-.026-2.462t-.079-2.567a16.738,16.738,0,0,0-.211-2.171.3.3,0,0,1,.37-.37Z" transform="translate(-12.277 -13.796)" fill="#31a8ff"/></g></g></svg>