<svg xmlns="http://www.w3.org/2000/svg" xmlns:xlink="http://www.w3.org/1999/xlink" width="100" height="100" viewBox="0 0 100 100"><defs><clipPath id="a"><rect width="80" height="80" rx="20" transform="translate(0.074 0.092)" fill="#fff"/></clipPath><clipPath id="c"><rect width="100" height="100"/></clipPath></defs><g id="b" clip-path="url(#c)"><g transform="translate(9.926 9.908)" clip-path="url(#a)"><g transform="translate(0.052 0.049)"><path d="M0,0H80.928V80.928H0Z" fill="#300"/><path d="M49.505,61.219H37.151l-2.524,8.249a.629.629,0,0,1-.642.481H27.733q-.535,0-.375-.588l10.664-30.8q.16-.481.32-1.1a7.447,7.447,0,0,0,.215-1.829.331.331,0,0,1,.374-.374h8.5c.249,0,.393.09.427.268l12.17,33.88q.159.536-.321.535H52.756a.494.494,0,0,1-.535-.374Zm-10.5-5.69h9.05c-.214-.712-.949-2.36-1.234-3.251s-.677-1.6-1-2.616l-.963-3.048q-.481-1.524-.882-2.941t-.722-2.593h-.053a42.927,42.927,0,0,1-1.123,4.272q-.749,2.406-1.524,4.92C40.043,51.952,39.509,54.1,39.01,55.529ZM67.261,40.848a3.879,3.879,0,0,1-2.941-1.177A4.23,4.23,0,0,1,63.2,36.624a3.926,3.926,0,0,1,1.2-2.967A4.131,4.131,0,0,1,67.369,32.5a3.976,3.976,0,0,1,3.02,1.155,4.125,4.125,0,0,1,1.1,2.967,4.175,4.175,0,0,1-1.155,3.048,4.1,4.1,0,0,1-3.073,1.177ZM63.8,69.417V44.97c0-.321.142-.481.428-.481H70.3q.427,0,.427.481V69.418q0,.536-.427.535H64.28q-.481,0-.48-.535Z" transform="translate(-10.047 -11.953)" fill="#ff9a00"/></g></g></g></svg>