<svg xmlns="http://www.w3.org/2000/svg" xmlns:xlink="http://www.w3.org/1999/xlink" width="100" height="100" viewBox="0 0 100 100"><defs><clipPath id="a"><rect width="80" height="80" rx="20" transform="translate(-0.436 -0.763)" fill="#fff"/></clipPath><clipPath id="c"><rect width="100" height="100"/></clipPath></defs><g id="b" clip-path="url(#c)"><g transform="translate(10.436 10.763)" clip-path="url(#a)"><g transform="translate(-0.044 -0.371)"><path d="M0,0H79.215V79.215H0Z" fill="#00005b"/><path d="M39.2,62.487H27.107l-2.459,7.972a.616.616,0,0,1-.628.471H17.893q-.523,0-.366-.575L28,40.632q.156-.471.313-1.073a11.176,11.176,0,0,0,.209-2.12.324.324,0,0,1,.367-.366h8.321c.243,0,.383.088.418.262l11.882,33.07q.156.524-.314.523h-6.8a.483.483,0,0,1-.523-.366ZM28.994,56.917h8.27c-.21-.7-.452-2.129-.733-3s-.575-1.808-.889-2.8-.627-1.989-.943-2.984-.6-1.954-.863-2.878-.5-1.77-.706-2.538h-.052a42.222,42.222,0,0,1-1.1,4.181q-.733,2.355-1.492,4.816c-.51,1.644-1,3.813-1.5,5.2ZM68.7,59.63H58.387a7.974,7.974,0,0,0,1.065,3,5.383,5.383,0,0,0,2.381,1.963,10.284,10.284,0,0,0,4.246.9A14.3,14.3,0,0,0,69,65.269a14.084,14.084,0,0,0,3.063-.915q.261-.209.262.261v4.973a.776.776,0,0,1-.079.392.748.748,0,0,1-.236.235,14.668,14.668,0,0,1-3.4,1.13,21.009,21.009,0,0,1-4.239.166,14.932,14.932,0,0,1-6.228-1.152,11.1,11.1,0,0,1-4.083-3.088,12.1,12.1,0,0,1-2.25-4.266,16.8,16.8,0,0,1-.678-4.736,16.493,16.493,0,0,1,.811-5.156,13.449,13.449,0,0,1,2.433-4.449,11.688,11.688,0,0,1,3.924-3.1,12.274,12.274,0,0,1,5.444-1.13,13.1,13.1,0,0,1,5.322,1.05,9.134,9.134,0,0,1,3.428,2.7,11.9,11.9,0,0,1,1.936,3.69,13.151,13.151,0,0,1,.628,3.978q0,1.152-.079,2.093a9.013,9.013,0,0,1-.2,1.111.474.474,0,0,1-.471.419c-.209,0-.565.026-1.071.078s-1.406.032-2.155.049-1.544.032-2.381.032ZM58.361,55.472h6.855q1.257,0,1.858-.026a3.685,3.685,0,0,0,.759-.079v-.314a8.823,8.823,0,0,0-.113-1.873A4.276,4.276,0,0,0,63.482,50.2a4.548,4.548,0,0,0-4.318,2.46,10.986,10.986,0,0,0-.806,2.815Z" transform="translate(-6.667 -14.126)" fill="#99f"/></g></g></g></svg>