<svg xmlns="http://www.w3.org/2000/svg" xmlns:xlink="http://www.w3.org/1999/xlink" width="256" height="100" viewBox="0 0 256 100"><defs><clipPath id="b"><rect width="256" height="100"/></clipPath></defs><g id="a" clip-path="url(#b)"><g transform="translate(-71.661 -32.5)"><g transform="translate(199.099 70.655)"><path d="M642.842,139.212h5.992v9.758h.071l7.391-9.76h7.572l-9.186,11.052,9.509,14.424h-7.356l-6.1-9.689-1.9,2.333v7.356H642.84V139.212Z" transform="translate(-642.84 -138.278)"/><path d="M756.19,187.915c0-5.383,3.48-9.115,8-9.115a6.281,6.281,0,0,1,4.845,2.189l.071-.036v-1.829h5.634V196.67h-5.348v-1.83l-.071-.036a5.73,5.73,0,0,1-4.845,2.189C759.67,196.993,756.19,193.332,756.19,187.915Zm13.169,0a3.86,3.86,0,0,0-3.7-4.162c-2.152,0-3.769,1.651-3.769,4.162,0,2.475,1.543,4.126,3.769,4.126A3.808,3.808,0,0,0,769.359,187.915Z" transform="translate(-734.407 -170.26)"/><path d="M872.33,179.123h5.6v2.441H878a6.224,6.224,0,0,1,5.06-2.763h.215v6.065c-.538-.037-1.042-.071-1.328-.071a3.7,3.7,0,0,0-4.018,3.984v7.894h-5.6Z" transform="translate(-828.229 -170.26)"/><path d="M936.19,187.915c0-5.383,3.48-9.115,8-9.115a6.281,6.281,0,0,1,4.845,2.189l.071-.036v-1.829h5.635V196.67H949.4v-1.83l-.071-.036a5.73,5.73,0,0,1-4.845,2.189C939.67,196.993,936.19,193.332,936.19,187.915Zm13.17,0a3.86,3.86,0,0,0-3.7-4.162c-2.152,0-3.769,1.651-3.769,4.162,0,2.475,1.543,4.126,3.769,4.126A3.808,3.808,0,0,0,949.359,187.915Z" transform="translate(-879.816 -170.26)"/><path d="M1047.66,152.015c0-5.383,3.48-9.115,8-9.115a6.543,6.543,0,0,1,5.023,2.189h.036V134.36h5.635v26.41h-5.346V158.9h-.072a6.015,6.015,0,0,1-4.986,2.189C1051.105,161.093,1047.66,157.432,1047.66,152.015Zm13.277,0a3.82,3.82,0,1,0-7.608,0c0,2.475,1.58,4.126,3.768,4.126A3.812,3.812,0,0,0,1060.937,152.015Z" transform="translate(-969.865 -134.36)"/><path d="M1163.06,139.017a3.358,3.358,0,1,1,3.338,3.23A3.206,3.206,0,0,1,1163.06,139.017Zm.538,5.417h5.6v17.547h-5.6Z" transform="translate(-1063.089 -135.572)"/></g><g transform="translate(93.54 55.5)"><ellipse cx="18.001" cy="25.073" rx="18.001" ry="25.073" transform="translate(0 1.607)" fill="none" stroke="#ff5035" stroke-miterlimit="10" stroke-width="10"/><circle cx="27" cy="27" r="27" transform="translate(36.324 0)" fill="none" stroke="#ff5035" stroke-miterlimit="10" stroke-width="10"/></g><g transform="translate(106.075 76.714)"><path d="M163.943,177.589a8.052,8.052,0,0,1,4.743,1.48,5.786,5.786,0,1,0-8.7-.5A8.271,8.271,0,0,1,163.943,177.589Z" transform="translate(-158.77 -168.588)"/><path d="M398.7,174.247a8.144,8.144,0,0,1,4.383,1.236,5.786,5.786,0,1,0-8.73-.023A8.156,8.156,0,0,1,398.7,174.247Z" transform="translate(-347.939 -165.89)"/></g></g></g></svg>