<svg xmlns="http://www.w3.org/2000/svg" xmlns:xlink="http://www.w3.org/1999/xlink" width="100" height="100" viewBox="0 0 100 100"><defs><clipPath id="b"><rect width="100" height="100"/></clipPath></defs><g id="a" clip-path="url(#b)"><path d="M71.429,2.25H8.571A8.574,8.574,0,0,0,0,10.821V73.679A8.574,8.574,0,0,0,8.571,82.25H71.429A8.574,8.574,0,0,0,80,73.679V10.821A8.574,8.574,0,0,0,71.429,2.25ZM62.7,30.607c.036.5.036,1.018.036,1.518,0,15.482-11.786,33.322-33.322,33.322A33.168,33.168,0,0,1,11.429,60.2a24.673,24.673,0,0,0,2.821.143,23.481,23.481,0,0,0,14.536-5,11.727,11.727,0,0,1-10.946-8.125A12.622,12.622,0,0,0,23.125,47,11.713,11.713,0,0,1,13.75,35.5v-.143a11.7,11.7,0,0,0,5.286,1.482,11.687,11.687,0,0,1-5.214-9.75,11.565,11.565,0,0,1,1.589-5.911,33.254,33.254,0,0,0,24.143,12.25,11.737,11.737,0,0,1,19.982-10.7,22.95,22.95,0,0,0,7.429-2.821,11.681,11.681,0,0,1-5.143,6.446,23.307,23.307,0,0,0,6.75-1.821A24.652,24.652,0,0,1,62.7,30.607Z" transform="translate(10 7.75)" fill="#1c9ff0"/></g></svg>