<svg xmlns="http://www.w3.org/2000/svg" xmlns:xlink="http://www.w3.org/1999/xlink" width="100" height="100" viewBox="0 0 100 100"><defs><clipPath id="b"><rect width="100" height="100"/></clipPath></defs><g id="a" clip-path="url(#b)"><path d="M40,0A40,40,0,1,0,80,40,40,40,0,0,0,40,0ZM72.948,38.135A71.346,71.346,0,0,0,49.272,37.9c-.813-1.877-1.657-3.751-2.556-5.6A47.2,47.2,0,0,0,65.208,18.692a32.877,32.877,0,0,1,7.74,19.443Zm-12.8-24.272a40.451,40.451,0,0,1-16.62,12.266A154.276,154.276,0,0,0,31.9,8.007,32.57,32.57,0,0,1,60.143,13.863Zm-35.052-3.31A148.632,148.632,0,0,1,36.88,28.49,106.01,106.01,0,0,1,7.935,32.172a33.1,33.1,0,0,1,17.156-21.62ZM6.969,40l.043-.854A111.783,111.783,0,0,0,40.178,34.74q1.166,2.384,2.234,4.769a51.481,51.481,0,0,0-27.8,21.6A32.882,32.882,0,0,1,6.957,40ZM19.721,66.031A44.919,44.919,0,0,1,45.047,45.942a130.451,130.451,0,0,1,6.81,24.877A32.746,32.746,0,0,1,19.721,66.05ZM58.35,67.462a136.987,136.987,0,0,0-6.4-22.989,66.553,66.553,0,0,1,20.662.653A33.075,33.075,0,0,1,58.348,67.462Z" transform="translate(10.001 10)" fill="#ea4c89"/></g></svg>