<svg xmlns="http://www.w3.org/2000/svg" xmlns:xlink="http://www.w3.org/1999/xlink" width="100" height="100" viewBox="0 0 100 100"><defs><clipPath id="b"><rect width="100" height="100"/></clipPath></defs><g id="a" clip-path="url(#b)"><path d="M33.3,48.867c0,3.446-2.5,4.531-5.57,4.531H19.677V43.945H27.9C31.213,43.962,33.3,45.338,33.3,48.867Zm-1.376-14.7c0-3.159-2.446-3.911-5.16-3.911H19.7v8h7.63c2.7,0,4.607-1.178,4.607-4.089ZM55.559,38.3a5.322,5.322,0,0,0-5.661,5.3H61.005a5.089,5.089,0,0,0-5.446-5.3ZM80,10.822V73.666a8.584,8.584,0,0,1-8.572,8.584H8.572A8.584,8.584,0,0,1,0,73.666V10.822A8.584,8.584,0,0,1,8.572,2.25H71.428A8.584,8.584,0,0,1,80,10.822ZM48.522,29.572H62.414V26.2h-13.9Zm-7.678,19.7a8.878,8.878,0,0,0-6.257-9.223,6.677,6.677,0,0,0,4.678-6.607c0-6.822-5.089-8.482-10.969-8.482H12.142V59.249H28.767c6.233-.036,12.07-3.019,12.07-9.982Zm27.016-2.642c0-7.339-4.292-13.463-12.07-13.463A12.464,12.464,0,0,0,43.1,46.306c0,7.733,4.874,13.036,12.7,13.036A11.071,11.071,0,0,0,67.415,51H61.391A5.649,5.649,0,0,1,56,54.227a5.6,5.6,0,0,1-6.088-6.314H67.794c.026-.415.062-.861.062-1.29Z" transform="translate(10.001 7.75)" fill="#0056ff"/></g></svg>